<svg width="44" height="42" viewBox="0 0 44 42" fill="none" xmlns="http://www.w3.org/2000/svg">
<path fill-rule="evenodd" clip-rule="evenodd" d="M37.125 41.25C40.9227 41.2486 43.9986 38.1727 44 34.375C44 33.3135 43.5875 32.3551 42.9289 31.625C43.5875 30.8949 44 29.9365 44 28.875C44 27.8135 43.5875 26.8551 42.9289 26.125C43.5875 25.3949 44 24.4365 44 23.375C44 22.5074 43.7291 21.7044 43.2726 21.0416C43.6824 20.5727 43.945 19.9664 43.9533 19.2747L43.9464 19.0919C43.5559 13.3746 40.9393 8.54975 36.9793 5.21537C33.0206 1.87413 27.742 0 22 0C16.258 0 10.9794 1.87413 7.02075 5.21537C3.06075 8.54975 0.444125 13.3746 0.053625 19.0891L0.04675 19.2734C0.056375 19.965 0.317625 20.5714 0.727375 21.0403C0.270875 21.7044 0 22.5074 0 23.375C0 24.4365 0.4125 25.3949 1.07113 26.125C0.4125 26.8551 0 27.8135 0 28.875C0 29.9365 0.4125 30.8949 1.07113 31.625C0.4125 32.3551 0 33.3135 0 34.375C0.001375 38.1727 3.07725 41.2486 6.875 41.25H37.125ZM8.7945 7.31637C12.2155 4.42887 16.8534 2.75 22 2.75C27.1466 2.75 31.7845 4.42887 35.2055 7.31637C38.6169 10.2039 40.8389 14.2711 41.1991 19.2431L41.1868 19.25H39.875H4.125H2.81325L2.80087 19.2431C3.15975 14.2711 5.38313 10.2039 8.7945 7.31637ZM41.25 23.375C41.2486 22.616 40.634 22.0014 39.875 22H4.125C3.366 22.0014 2.75137 22.616 2.75 23.375C2.75137 24.134 3.366 24.7486 4.125 24.75H39.875C40.634 24.7486 41.2486 24.134 41.25 23.375ZM41.25 28.875C41.2486 29.634 40.634 30.2486 39.875 30.25H37.6942L34.9442 27.5H39.875C40.634 27.5014 41.2486 28.116 41.25 28.875ZM29.4443 30.25H33.8057L31.0557 27.5H26.6943L29.4443 30.25ZM25.5557 30.25H21.1943L18.4443 27.5H22.8057L25.5557 30.25ZM12.9443 30.25H17.3057L14.5557 27.5H10.1943L12.9443 30.25ZM4.125 27.5H6.30575L9.05575 30.25H4.125C3.366 30.2486 2.75137 29.634 2.75 28.875C2.75137 28.116 3.366 27.5014 4.125 27.5ZM41.25 34.375C41.2486 33.616 40.634 33.0014 39.875 33H4.125C3.366 33.0014 2.75137 33.616 2.75 34.375C2.75413 36.652 4.59663 38.4959 6.875 38.5H37.125C39.402 38.4959 41.2459 36.652 41.25 34.375Z" fill="white"/>
</svg>
